<svg id="play-button" xmlns="http://www.w3.org/2000/svg" width="188.643" height="188.643" viewBox="0 0 188.643 188.643">
  <path id="Path_51" data-name="Path 51" d="M96.083,61.707,26.914,14.546A3.142,3.142,0,0,0,22,17.143v94.322a3.142,3.142,0,0,0,4.914,2.6L96.083,66.9a3.141,3.141,0,0,0,0-5.194Zm-67.8,43.806V23.095L88.733,64.3Z" transform="translate(47.169 30.018)" fill="#fff"/>
  <path id="Path_52" data-name="Path 52" d="M94.322,0a94.322,94.322,0,1,0,94.322,94.322A94.429,94.429,0,0,0,94.322,0Zm0,182.355a88.034,88.034,0,1,1,88.034-88.034A88.134,88.134,0,0,1,94.322,182.355Z" fill="#fff"/>
</svg>
