<svg xmlns="http://www.w3.org/2000/svg" width="19.5" height="19.5" viewBox="0 0 19.5 19.5">
  <g id="Customer-icon" transform="translate(-271.113 -6774.917)">
    <g id="Group_118" data-name="Group 118" transform="translate(275.637 6779.599)">
      <path id="Path_114" data-name="Path 114" d="M277.9,6800.437a3.035,3.035,0,0,1,2.009-.6h.877l1.007-1.394" transform="translate(-277.905 -6788.123)" fill="none" stroke="#0054a4" stroke-linecap="round" stroke-linejoin="round" stroke-width="1.5"/>
      <path id="Path_115" data-name="Path 115" d="M292.346,6800.494a2.885,2.885,0,0,0-2.046-.655h-.877l-1.032-1.394" transform="translate(-281.815 -6788.123)" fill="none" stroke="#0054a4" stroke-linecap="round" stroke-linejoin="round" stroke-width="1.5"/>
      <path id="Path_116" data-name="Path 116" d="M284.136,6792.5c1.615,0,3.087-2.135,3.087-3.957,1.025-.848.125-3.956.125-3.956.613-1.617-1.109-3.646-3.8-1.979-2.337,0-2.63.885-2.63,1.979a5.425,5.425,0,0,0,.126,3.956C281.048,6790.365,282.521,6792.5,284.136,6792.5Z" transform="translate(-278.913 -6781.985)" fill="none" stroke="#0054a4" stroke-linecap="round" stroke-linejoin="round" stroke-width="1.5"/>
    </g>
    <circle id="Ellipse_17" data-name="Ellipse 17" cx="9" cy="9" r="9" transform="translate(271.863 6775.667)" stroke-width="1.5" stroke="#0054a4" stroke-linecap="round" stroke-linejoin="round" fill="none"/>
  </g>
</svg>
