<svg xmlns="http://www.w3.org/2000/svg" width="18.966" height="22.948" viewBox="0 0 18.966 22.948">
  <g id="Phone" transform="translate(-289.676 -1892.496) rotate(30)">
    <path id="Path_127" data-name="Path 127" d="M1212.681,1508.948c-2.983,0-5.818-4.445-5.818-9.724s2.835-9.557,5.818-9.557" transform="translate(0 0)" fill="none" stroke="#fff" stroke-linecap="round" stroke-linejoin="round" stroke-width="1.5"/>
    <path id="Path_128" data-name="Path 128" d="M1213.937,1505.98a3.715,3.715,0,0,1-3.324-3.74,3.55,3.55,0,0,1,3.324-3.574" transform="translate(-1.257 -3.016)" fill="none" stroke="#fff" stroke-linecap="round" stroke-linejoin="round" stroke-width="1.5"/>
    <path id="Path_129" data-name="Path 129" d="M1216.822,1515.651a1.479,1.479,0,0,0,1.338-1.413v-3.324a1.328,1.328,0,0,0-1.338-1.247H1215.5v5.984Z" transform="translate(-2.894 -6.703)" fill="none" stroke="#fff" stroke-linecap="round" stroke-linejoin="round" stroke-width="1.5"/>
    <path id="Path_130" data-name="Path 130" d="M1216.822,1495.651a1.479,1.479,0,0,0,1.338-1.413v-3.324a1.328,1.328,0,0,0-1.338-1.247H1215.5v5.984Z" transform="translate(-2.894 0)" fill="none" stroke="#fff" stroke-linecap="round" stroke-linejoin="round" stroke-width="1.5"/>
  </g>
</svg>
