<svg xmlns="http://www.w3.org/2000/svg" width="1030.095" height="646.659" viewBox="0 0 1030.095 646.659">
  <g id="Map" transform="translate(0.499 0.468)">
    <g id="Group_294" data-name="Group 294" transform="translate(706.493 34.682)">
      <path id="Path_372" data-name="Path 372" d="M869.471-725.3c2.081-10.791-7.948-3.221-11.355-13.438-1.836-5.505-3.589-10.646-5.486-16.073-4.959-14.2-18.481-21.287-25.174-3.043-4.862,13.266-2.3,32.4-15.115,50.214,1.794,6.292,4.813,18.266,8.437,29-3.678-10.72-6.755-22.695-8.576-28.982a68.773,68.773,0,0,1-7.578,8.491l.018.029a59.025,59.025,0,0,1-6.322,5.344c-1.654,1.168-6.307,2.1-9.153,2.4-4.31.453-8.5.278-14.134.417,6.256,19.9,12.241,52.383,12.241,52.383l13.13-4.814c-.516-5.2.115-27.426.115-31.272,0-.868-.019-1.781-.013-2.7,0,.943.021,1.881.026,2.771.016,3.815-.505,25.764.015,31.157-4.97,1.824-9.691,3.553-13.27,4.858,0,2.839.2,5.764.38,9.461s.344,8.174.344,8.174c4.162-.721,22.724-5.862,28.538-7.539h0c-5.811,1.676-24.38,6.819-28.543,7.54,0,9.294,2.131,15.5,4.284,18.646-2.154-3.141-4.287-9.352-4.287-18.651,0,0-.165-4.473-.345-8.174s-.38-6.622-.38-9.461c0,0-5.985-32.478-12.241-52.383.527-.014,1.027-.022,1.532-.031-10.021.127-21.518.756-30.869,7.329-9.236,6.5-12.2,16.688-13.806,26.287-1.807,10.78-1.581,20.626-9.906,22.893-4.236,1.152-12.617,2.034-13.881.7-2.208-2.333-5.233-1.842-8.936-1.368-1.029.133-10.811,2.755-11.693,4.99-2.369,6.025,4.859,7.037,2.2,11.579-1.516,2.6-6.752,6.411-8.7,8.707s-4,4.814-6.13,7.369v.01c-4.175,5.006-8.683,10.157-13.426,13.986-.611.49-.664.526-.668.528h0c-12.7,10.01-31.585,18.233-47.9,10.473a17.972,17.972,0,0,1-4.947-3.284c-1.957.353-4.01.68-6.214,1.015-4.131.62-17.791,1.42-17.791,1.42,1.211,12.378,7.443,63.18,7.651,69.318,5.405-4.5,8.922,4.941,11.653,6.475,3.145,1.771,11.712.4,15.327-.376,3.009-.643,6.254-1.659,9.651-1.056,2.792.505,6.871,1.681,9.653,1.432.136-.012.26-.029.389-.044l-.013,0c-.623,22.113,10.974,25.842,10.974,25.842,12.425,4.863,28.728-3.958,30.718-4.978,4.412-2.273,7.627-11.457,8.832-15.019.588-1.742,2.29-10.975,2.9-13.119a46.523,46.523,0,0,0,9.412-3.092,26.079,26.079,0,0,0,8.571-8.765c2.712-4.543,3.168-14.537,3.09-14.89l.006,0c.078.355-.379,10.347-3.09,14.889a26.082,26.082,0,0,1-8.572,8.765,46.521,46.521,0,0,1-9.412,3.092c-.609,2.143-2.312,11.377-2.9,13.119-1.2,3.562-4.42,12.747-8.832,15.019-1.99,1.021-18.293,9.841-30.718,4.978-1.912,1.944-11.336,10.109-14.447,13.2a116.783,116.783,0,0,0-7.831,8.908c-.376.466-.917,1.013-1.5,1.607,14.717-1.79,26.709-3.381,34.937-4.086-.083,1.6-.7,5.425-1.514,6.8-2.735,4.645-7.51,7.576-12.112,10.411-5.719,3.532-23.986,18.066-28.986,21.387-2.845,1.891-5.492,3.973-5.468,8.519v.662c-5.946.594-17.578,2.2-24.713,2.68,2.018,11.1,8.4,31.6,11.244,40.73,2.4,7.715,7.982,23.032,9.449,27.147-1.44,4.373-8.076,6.81-.719,16.277,2.743,3.529,2.882,10.186,1.967,14.686,2,4.11,3.149,2.472,5.566,4.873,6.555.5,32.96,1.751,41.378.5,3.824-.566,9.212-1.366,13.134-.511,4.081.884,6.371,4.007,7.055-2.014.351-3.107-3.469-8.284,2.006-9.2,3.764-.623,4.281,4.067,6.62,3.942-2.084-8.992-3.275-17.342-1.814-20.667,2.864-6.524,4.154-8.636,2.646-15.521a11.362,11.362,0,0,1,.936-6.635c-.219-.31-.435-.621-.651-.932.216.311.432.622.652.932h0l0,0h0l0,0c1.842-4.365,5.6-8.234,8.338-8.283,3.054-.059,5.288-2.584,7.192-3.819,5.158-3.348,10.223-6.616,15.078-12,2.429-2.7,2.272-6.62,3.785-9.706.614-1.242,2.259-2.747,2.537-4.028.482-2.251-1.489-3.184-.9-5.431.52-1.97,2.1-3.025,3.884-3.932.551-.252,1.094-.519,1.632-.8l.163-.08c.027-.015.055-.027.082-.041.508-.251,1.01-.51,1.484-.8l-.027-.025c.159-.093.324-.176.482-.271a40.961,40.961,0,0,0,8.072-7.592c4.614-5.364,6.9-11.365,12.984-15.241,2.51-1.6,8.04-3.738,9.5-6.559,2.122-4.075-1.177-5.835-3.036-8.95-5.063-8.489,11.261-7.488,14.742-10.472.962-.827-2.439-3.54-3.783-4.925-1.317-1.346-7.377,4.179-11.734,1.516-1.336-.811-1.17-4.543-1.011-7.19,6.388-1.931,11.2-5.741,12.245-12.084h.008c.067-.37,19.8,11.837,19.675,8.022,5.17-33.128-22.2-23.348-27.957-33.319-7.165-12.417-6.81-29.448-8.421-31.716-2.355-3.321-6,17.321-8.923,14.59-1.383-1.3-2.48-2.067-3.407-3.862-2.05-2.855.154-6.07-.374-10.013-.1-.721-3.164-2.355-6.783-4.387-3.235-1.81-6.875-3.987-9.747-5.329-.292,2.337-.415,4.4-.662,6A28.379,28.379,0,0,1,713.781-536a28.4,28.4,0,0,0,8.355,2.232c.247-1.6.37-3.658.662-6,.057.025.118.057.171.08a25.529,25.529,0,0,0,.119-2.6c-6.064-.063-12.562.11-18.174,1.514-5.233,1.313-10.787,3.123-12.488,8.519-.517-2.075-1.648-4.88-2.606-7.508H671.829l-4.8-17.656-2.133-.482c0-.161,0-.32-.005-.48,0,.16,0,.319.007.479l2.134.482,4.8,17.656h17.992c-.374-1.011-.719-2-.993-2.9,3.7-.719,65.674-13.818,70.1-14.755,2.768-.495,9.317-1.08,10.475-2.93-.059-.056-.114-.106-.169-.157.968.893,2.639,2.572,3.025,3,.5.552.663.442.994,1.437s.166,1.768-.884,1.878-1.1-.663-1.658-.11.664.884-.884,1.215a16.716,16.716,0,0,0-4.973,2.763c-.331.387-.442.884-1.1,1.216s-1.271-.221-1.547.552.055,1.161,0,1.658-1.271,2.211-2.431,2.21a4.837,4.837,0,0,0-3.758.995c-1.326,1.16-2.321,1.05-2.873,2.321a18.933,18.933,0,0,1-1.437,2.873c-.276.332-1.1.608-1.1,1.437s.055.884.553,1.326,1.27,1.105,1.1,1.547a8.74,8.74,0,0,0-.774,1.879,2.46,2.46,0,0,0,.553,1.547s4.862,4.366,7.183,6.189,2.21,2.6,2.321,2.984.331.829.773.884.166-.442.553-.774,1.879-1.049,2.763-.442,2.928.5,2.984,1.216-1.437,5.249-1.547,5.857a9.935,9.935,0,0,0-.443,2.431c.166.221-.165.387.664.443s4.586-2.487,7.294-7.184,4.531-5.912,5.967-7.073,2.6-2.652,4.642-5.747,4.144-10.222,5.194-13.482,1.658-7.515,2.21-9.5,2.1-6.907,1.547-9.394-.884-3.094-1.215-3.205-.332,1.161-.111,1.326.442.94.663,1.216,0,.829-.442.663-1.6-1.437-3.426-1.547-2.984-.332-3.647-.995-.442-.608-.11-1.1a18.091,18.091,0,0,0,.884-1.879c.166-.331.663-.055.884-1.547s.663-2.044.884-2.21-.166-.608.553-.774l1.436-.331s-.055-.277.111.331a.84.84,0,0,0,1.1.553c.332-.111,0,1.879,1.216-.995s3.757-10.775,3.205-11.051h0c3.366-3.306,9.108-5.361,13.91-12.971-5.391-.46-12.391,1.329-17.318.476a22.553,22.553,0,0,1,2.2-2.244c3.8-3.408,8.068-4.877,12.956-7.174,2.86-1.344,8.6-3.207,14.21-5.023v0c2.462-.794,4.9-1.575,7.063-2.3,2.994-1.008,5.743-1.2,6.818-2.276a10.5,10.5,0,0,0,.8-.911c-1.658-1.319-3.707-2.909-5.4-4.379-1.571-1.371-3.311-3.066-3.923-3.7a32.256,32.256,0,0,0-4.067-3.689h.008a32.238,32.238,0,0,1,4.066,3.689c.613.633,2.352,2.328,3.924,3.7,1.69,1.469,3.74,3.06,5.4,4.379,2.864-4.388,3.656-9.474,1.463-13.092-1.746-2.878-7.948-8.137-13.438-12.3.978-3.266,2.506-6.262,4.046-10.092l-4.193,1.544c2.633-.983,4.264-1.592,4.293-1.6.568-1.457,1.146-3.018,1.7-4.778-.015-.014-.03-.033-.046-.047a78.3,78.3,0,0,0,3.29-19.588c.237-4.234,9.071-8.832,11.491-12.392,1.744-2.561,5.731-4.9,5.541-13.6C857.172-703.159,888.209-724.355,869.471-725.3ZM635.409-410.583c.024-.046.045-.093.07-.138C635.454-410.676,635.433-410.629,635.409-410.583Zm12.949-7.911c.226-.067.455-.132.684-.2C648.813-418.626,648.584-418.561,648.358-418.494Zm1.4-.4c.368-.1.739-.2,1.113-.294Q650.306-419.041,649.754-418.889Zm1.691-.439q.668-.164,1.344-.318Q652.113-419.492,651.445-419.328Zm1.795-.42q1.425-.318,2.87-.591C655.148-420.156,654.189-419.959,653.24-419.748Zm26.156-2.939v0a150.144,150.144,0,0,0-21.229,1.976A150.476,150.476,0,0,1,679.4-422.687ZM658.137-420.7q-.956.162-1.911.343Q657.181-420.541,658.137-420.7Zm-10.855,2.541c-.2.064-.4.128-.594.194C646.885-418.034,647.083-418.1,647.282-418.162Zm-6.266,2.572.314-.167Zm1.359-.683c.122-.057.246-.113.369-.169C642.621-416.386,642.5-416.33,642.375-416.273Zm1.351-.6.487-.2Zm1.394-.547c.157-.058.312-.117.471-.175C645.432-417.534,645.277-417.474,645.12-417.416Zm-5.112,2.4c-.072.043-.14.088-.21.131C639.868-414.93,639.936-414.975,640.008-415.018Zm-1.169.764-.063.043Zm-.978.757c-.043.035-.087.071-.129.107C637.774-413.426,637.818-413.462,637.861-413.5Zm-.922.852c-.037.039-.074.077-.11.116C636.865-412.568,636.9-412.606,636.939-412.645Zm-23.647,3.208c-.3.026-.623.058-.96.091.336-.032.659-.06.956-.093,7.872-.7,11.63-.366,19.429-1.626,1.085-.173,2.227-.4,3.4-.631l.021-.025-.02.028c-1.175.232-2.316.457-3.4.63C624.921-409.8,621.164-410.132,613.292-409.437Zm78.324-5.922a18.612,18.612,0,0,1-5.434.308,18.578,18.578,0,0,0,5.429-.31,43.474,43.474,0,0,1,16.8-.6,16.48,16.48,0,0,1,4.465,1.214,16.443,16.443,0,0,0-4.46-1.212A43.494,43.494,0,0,0,691.616-415.359Zm35.329,15.109c.408-.207.825-.408,1.243-.609C727.77-400.658,727.352-400.458,726.945-400.25ZM664.9-557.619c0-.065,0-.13-.005-.2C664.9-557.749,664.9-557.684,664.9-557.619Zm109.572-40.962h0l-.08-.047Zm-.313-.184-.067-.04Zm-.14-.86a3.047,3.047,0,0,1,.166.258A2.822,2.822,0,0,0,774.021-599.625Zm.216.36a2.82,2.82,0,0,1,.121.269A2.82,2.82,0,0,0,774.237-599.265Zm.158.393a2.576,2.576,0,0,1,.078.28A2.818,2.818,0,0,0,774.4-598.872Zm-.43-.834c-.065-.085-.136-.167-.21-.246A3.078,3.078,0,0,1,773.965-599.706Zm-.269-.309q-.12-.121-.255-.234Q773.576-600.137,773.7-600.015Zm-96.57,4.1v0c.046-.008,50.8-8.876,77.278-16.685.044.064.091.127.136.191-.044-.063-.09-.125-.134-.188C727.913-604.787,677.126-595.913,677.126-595.913Zm79.238-13.948q2.994,4.068,6.3,7.889s6.66-.627,10,1.2c-3.339-1.826-10-1.2-10-1.2Q759.36-605.788,756.364-609.861Zm17.022,9.566c-.1-.078-.2-.152-.3-.223C773.189-600.447,773.29-600.373,773.386-600.295Zm-.344-.252c-.114-.075-.232-.146-.354-.214C772.81-600.693,772.928-600.622,773.042-600.547Zm-1.844,3.406-.017.018Zm-10.327,26.03.008.008h0Zm.153-2.646a.593.593,0,0,1-.034.049C761-573.721,761.011-573.742,761.024-573.757Zm-.125-2.328,0-.023Zm-.042-.24a.114.114,0,0,1,.017.035A.114.114,0,0,0,760.857-576.325Zm-.2,1.464a1.245,1.245,0,0,0,.112-.155,1.245,1.245,0,0,1-.112.155.47.47,0,0,1-.2.139A.476.476,0,0,0,760.658-574.861Zm-.02-1.819a1.122,1.122,0,0,0-.021.3A1.125,1.125,0,0,1,760.638-576.68Zm-.019.313a.666.666,0,0,0,.039.18h0A.666.666,0,0,1,760.619-576.367Zm.37-1.036a1.791,1.791,0,0,0-.328.638,1.8,1.8,0,0,1,.328-.638l.034-.041Zm1.879-1.1a1.9,1.9,0,0,0,.663-.773c.1-.208.122-.275.095-.29.027.015.009.082-.095.29a1.9,1.9,0,0,1-.663.773Zm.028.1a.513.513,0,0,0-.024-.088A.513.513,0,0,1,762.9-578.41Zm-.007.227a.49.49,0,0,1-.124.2A.49.49,0,0,0,762.889-578.183Zm.532-2.093s-.277.442-.111.663h0c-.166-.221.111-.663.111-.663h.331a1.276,1.276,0,0,0,.221-.111,1.276,1.276,0,0,1-.221.111Zm-.111-3.094c-.461-.861-.989-1.226-.892-1.676-.1.45.431.815.892,1.676.725,1.353,1.451,1.946,1.324,2.369a.409.409,0,0,1-.108.172,3.143,3.143,0,0,1-.308.273,3.143,3.143,0,0,0,.308-.273.409.409,0,0,0,.108-.172C764.761-581.424,764.035-582.017,763.31-583.37Zm-.545-2.191.009-.009Zm2.976-2.672h0s.408-.016.206.308C766.15-588.249,765.741-588.233,765.741-588.233Zm.191-.071c.086-.034.2-.08.322-.135C766.126-588.382,766.019-588.337,765.932-588.3Zm-.141.053.094-.035C765.84-588.269,765.813-588.258,765.791-588.251Zm.2-1.1c0,.032.025.07.08.125a.325.325,0,0,0,.176.092.328.328,0,0,1-.176-.092C766.018-589.283,765.993-589.321,765.993-589.353Zm.023-.036c.044-.075.209-.14.388-.391h0C766.225-589.529,766.06-589.464,766.016-589.389Zm.411.244a.44.44,0,0,1-.146.009A.469.469,0,0,0,766.427-589.145Zm.18-.072h0l.019-.011s.608.277.111.553c-.145.08-.285.148-.418.208Q766.461-588.848,766.607-589.217Zm-.15.063a.855.855,0,0,0,.1-.039A.731.731,0,0,1,766.457-589.154Zm.184-.842c.013-.009.026-.02.04-.029A.414.414,0,0,0,766.641-590ZM761.906-577.7a1.046,1.046,0,0,1-.236-.018A1.046,1.046,0,0,0,761.906-577.7Zm-1.676,3.07c-.027.034.02.089.207.213a2.179,2.179,0,0,0,.209.119,2.179,2.179,0,0,1-.209-.119C760.25-574.543,760.2-574.6,760.23-574.632Zm.191,1.565c-.04,0-.074-.033-.1-.04C760.347-573.1,760.381-573.069,760.421-573.067Zm-.114-.025a3.812,3.812,0,0,0,.13.662c.044.2.084.352.122.494-.038-.142-.078-.3-.122-.494A3.83,3.83,0,0,1,760.307-573.092Zm.464,2.388a.847.847,0,0,0,.032.309A.847.847,0,0,1,760.771-570.7Zm.089.462c.13.212.419.375,1.013.354a1.842,1.842,0,0,1,.492.053,1.842,1.842,0,0,0-.492-.053C761.279-569.867,760.99-570.03,760.86-570.242Zm3.224,4a10.39,10.39,0,0,0-.167-1.417,10.39,10.39,0,0,1,.167,1.417,1.683,1.683,0,0,0,1.146,1.651A1.683,1.683,0,0,1,764.084-566.241Zm1.572,1.758a3.355,3.355,0,0,0,.733.032A3.355,3.355,0,0,1,765.656-564.483Zm.969.01c-.05.007-.125.014-.21.02.085-.006.16-.013.21-.02.221-.027.373.194.491.491C767-564.279,766.846-564.5,766.625-564.473Zm1.561,2.98a2.477,2.477,0,0,0,.241.288A2.477,2.477,0,0,1,768.186-561.493Zm.679.647.055.047Zm.3-32.029a5.173,5.173,0,0,1-.994,1.879,4.814,4.814,0,0,1-1.148.767h0c.314-.727.622-1.383.879-1.905a32.551,32.551,0,0,1,2.55-3.946h0a1.428,1.428,0,0,0-.072.222A16.693,16.693,0,0,1,769.167-592.875Zm3.426-5.3a6.278,6.278,0,0,0-1.049.721c.277-.331.551-.664.841-.984.134.052.279.1.418.154C772.734-598.253,772.666-598.218,772.593-598.179Zm23.539,12.267c-.288-.145-6.246-3.631-11.9-6.947C789.008-590.228,794.03-587.273,796.132-585.912ZM792.6-601.843c.071.093.142.2.212.284C792.746-601.645,792.675-601.75,792.6-601.843Zm24.183-25.989.017.047Zm-12.512-58.1a8.49,8.49,0,0,0,2.024-1.2,8.351,8.351,0,0,1-2.067,1.254,5.4,5.4,0,0,0-2.717,2.578A5.405,5.405,0,0,1,804.275-685.935Zm-3.027,3.237-.019.042C801.235-682.671,801.242-682.684,801.248-682.7Z" transform="translate(-553.166 768.944)" fill="#fff" opacity="0.1"/>
      <path id="Path_265" data-name="Path 265" d="M686.377-353.207c1.842-4.365,5.6-8.234,8.338-8.283,3.054-.059,5.288-2.584,7.192-3.819,5.158-3.348,10.223-6.616,15.078-12,2.429-2.7,2.272-6.62,3.785-9.706.614-1.242,2.259-2.747,2.537-4.028.482-2.251-1.489-3.184-.9-5.431.845-3.2,4.492-3.987,7.245-5.644a49.442,49.442,0,0,0-5.9-4.927c-5.02-3.754-9.651-8.307-15.983-9.073a43.5,43.5,0,0,0-16.8.6c-5.506,1.1-13,.218-12.216-7.325-4.545,0-45.218,1.585-44.8,15.521.09,2.806,3.054,4.849,5.556,6.307,3.178,1.859,5.405.784,7.619,2.958,3.838,3.779,7.809,6.649,10.045,9.784,6.111,8.568,15.92,17.4,22.456,25.489C681.777-360.137,683.961-356.612,686.377-353.207Z" transform="translate(-553.166 768.944)" fill="none" stroke="#fff" stroke-linecap="round" stroke-linejoin="round" stroke-width="3"/>
      <g id="Group_240" data-name="Group 240" transform="translate(33.74 357.091)">
        <path id="Path_266" data-name="Path 266" d="M682.791-331.055c2.864-6.524,4.154-8.636,2.647-15.521a11.356,11.356,0,0,1,.938-6.64v.008c-2.414-3.4-4.6-6.93-6.74-9.577-6.536-8.094-16.346-16.922-22.457-25.489-2.235-3.135-6.207-6-10.045-9.784-2.214-2.175-4.442-1.1-7.619-2.958-2.5-1.458-5.466-3.5-5.556-6.307a7.009,7.009,0,0,1,1.516-4.53c-1.176.233-2.318.458-3.4.631-7.8,1.26-11.557.931-19.429,1.626-5.531.49-18.17,2.273-25.74,2.778,2.018,11.1,8.4,31.6,11.244,40.73,2.4,7.715,7.982,23.032,9.449,27.147-1.44,4.373-8.076,6.81-.719,16.277,2.743,3.529,2.882,10.186,1.967,14.686,2,4.11,3.149,2.472,5.566,4.873,6.555.5,32.96,1.751,41.378.5,3.824-.566,9.212-1.366,13.134-.511,4.081.884,6.371,4.007,7.055-2.014.351-3.107-3.47-8.284,2.006-9.2,3.764-.623,4.281,4.067,6.62,3.942C682.521-319.38,681.33-327.73,682.791-331.055Z" transform="translate(-586.906 411.853)" fill="none" stroke="#fff" stroke-linecap="round" stroke-linejoin="round" stroke-width="3"/>
      </g>
      <path id="Path_267" data-name="Path 267" d="M731.263-204.28c-.95-8.125-2.437-16.473-6.477-23.514-3.887-6.793-4.91-7.278-9.588-13.695-4.776-6.544-6.113-17.358-10.517-23.8-4.78-6.986-7.643-8.918-11.244-16.416-1.832-3.818-6.228-16.794-9.061-28.706-2.143-.184-2.759-4.53-6.393-3.926-5.476.919-1.656,6.1-2.006,9.2-.684,6.021-2.974,2.9-7.055,2.014-3.922-.854-9.31-.055-13.134.511-8.419,1.256-34.823,0-41.378-.5-2.4-2.38-3.544-.793-5.519-4.784-7.566,1.473-50.971,5.3-55.725,5.529,1.924,4.077,4.222,8.221,6.622,12.235a73.62,73.62,0,0,1,7.374-1.6c12.674-1.2,18.736-.274,31.044,1.558,2.621.39,8.1,13.458,10.852,14.144,3.356.848,5.944-4.359,7.919-6.655,5.129-5.979,12.439-11.042,20.44-5.368,6.371,4.524,8.091,8.679,15.923,11.638,3.08,1.158,8.156.98,11.179,2.784,4.128,2.472-.137,3.685-.721,7.956,11.177,2.978,6.271,13.45,7.668,20.472.682,3.432,2.494,8.63,7.045,10.121.931,4.06-3.221,10.08.441,13.622,2.674,2.592,6.187.441,8.907,2.917,2.657,2.418,3.87,7.11,6.352,9.569,3.548,3.517,2.132,8.009,4.342,10.454,2.964,3.291,5.755,3.452,9.192,2.243,22.212,11.982-12.772,36.862-7.085,37.341C710.426-158.921,731.937-198.49,731.263-204.28Z" transform="translate(-553.166 768.944)" fill="#0054a4" stroke="#fff" stroke-linecap="round" stroke-linejoin="round" stroke-width="3"/>
      <g id="Group_248" data-name="Group 248" transform="translate(58.452 295.025)">
        <path id="Path_291" data-name="Path 291" d="M720.273-385.82c-.147.409-.274.823-.392,1.244C720-385,720.126-385.411,720.273-385.82Z" transform="translate(-611.618 473.919)" fill="none" stroke="#fff" stroke-linecap="round" stroke-linejoin="round" stroke-width="3"/>
        <path id="Path_292" data-name="Path 292" d="M722.6-397.058a4.545,4.545,0,0,0-.2.59A4.545,4.545,0,0,1,722.6-397.058Z" transform="translate(-611.618 473.919)" fill="none" stroke="#fff" stroke-linecap="round" stroke-linejoin="round" stroke-width="3"/>
        <path id="Path_293" data-name="Path 293" d="M722.872-397.594c-.065.117-.125.237-.178.36C722.747-397.357,722.807-397.477,722.872-397.594Z" transform="translate(-611.618 473.919)" fill="none" stroke="#fff" stroke-linecap="round" stroke-linejoin="round" stroke-width="3"/>
        <path id="Path_294" data-name="Path 294" d="M635-411.157l-.01.024Z" transform="translate(-611.618 473.919)" fill="none" stroke="#fff" stroke-linecap="round" stroke-linejoin="round" stroke-width="3"/>
        <path id="Path_295" data-name="Path 295" d="M723.188-398.08c-.069.1-.135.2-.2.3C723.053-397.88,723.115-397.98,723.188-398.08Z" transform="translate(-611.618 473.919)" fill="none" stroke="#fff" stroke-linecap="round" stroke-linejoin="round" stroke-width="3"/>
        <path id="Path_296" data-name="Path 296" d="M720.768-387.011a10.98,10.98,0,0,0-.5,1.191A10.98,10.98,0,0,1,720.768-387.011Z" transform="translate(-611.618 473.919)" fill="none" stroke="#fff" stroke-linecap="round" stroke-linejoin="round" stroke-width="3"/>
        <path id="Path_297" data-name="Path 297" d="M719.876-384.562c-.114.413-.219.831-.325,1.248C719.657-383.731,719.763-384.149,719.876-384.562Z" transform="translate(-611.618 473.919)" fill="none" stroke="#fff" stroke-linecap="round" stroke-linejoin="round" stroke-width="3"/>
        <path id="Path_298" data-name="Path 298" d="M724.443-399.3c-.1.069-.19.149-.288.221C724.253-399.153,724.345-399.229,724.443-399.3Z" transform="translate(-611.618 473.919)" fill="none" stroke="#fff" stroke-linecap="round" stroke-linejoin="round" stroke-width="3"/>
        <path id="Path_299" data-name="Path 299" d="M723.335-398.256a3.367,3.367,0,0,1,.227-.265A3.367,3.367,0,0,0,723.335-398.256Z" transform="translate(-611.618 473.919)" fill="none" stroke="#fff" stroke-linecap="round" stroke-linejoin="round" stroke-width="3"/>
        <path id="Path_300" data-name="Path 300" d="M726.072-400.288c-.147.08-.292.157-.439.233C725.78-400.131,725.925-400.208,726.072-400.288Z" transform="translate(-611.618 473.919)" fill="none" stroke="#fff" stroke-linecap="round" stroke-linejoin="round" stroke-width="3"/>
        <path id="Path_301" data-name="Path 301" d="M724.947-399.646c-.108.072-.216.145-.319.219C724.732-399.5,724.839-399.574,724.947-399.646Z" transform="translate(-611.618 473.919)" fill="none" stroke="#fff" stroke-linecap="round" stroke-linejoin="round" stroke-width="3"/>
        <path id="Path_302" data-name="Path 302" d="M725.487-399.967c-.127.069-.245.141-.363.214C725.242-399.826,725.36-399.9,725.487-399.967Z" transform="translate(-611.618 473.919)" fill="none" stroke="#fff" stroke-linecap="round" stroke-linejoin="round" stroke-width="3"/>
        <path id="Path_303" data-name="Path 303" d="M772.369-451.228c.962-.827-2.439-3.54-3.783-4.925-1.317-1.346-7.377,4.179-11.734,1.516-1.336-.811-1.17-4.543-1.011-7.19,6.391-1.932,11.207-5.744,12.247-12.092-1.652.241-28.977,6.383-55.018,10.576-25.358,4.077-51.915,6.042-53.371,6.058-.082,1.6-.7,5.431-1.515,6.808-2.735,4.645-7.51,7.576-12.112,10.411-5.719,3.532-23.986,18.066-28.986,21.387-2.845,1.891-5.492,3.973-5.468,8.519v.662c.362-.035.705-.065,1.023-.1,7.872-.7,11.63-.366,19.429-1.626,1.085-.173,2.227-.4,3.4-.631,7.367-9.767,39.286-10.991,43.279-10.991-.786,7.543,6.71,8.43,12.215,7.326a43.475,43.475,0,0,1,16.8-.6c6.332.766,10.963,5.319,15.983,9.073a49.442,49.442,0,0,1,5.9,4.927c-1.1.666-2.347,1.187-3.5,1.785a38.441,38.441,0,0,0,3.96-2.079,40.934,40.934,0,0,0,8.072-7.592c4.614-5.364,6.9-11.365,12.984-15.241,2.51-1.6,8.04-3.738,9.5-6.559,2.122-4.075-1.177-5.835-3.036-8.95C752.564-449.245,768.888-448.244,772.369-451.228Z" transform="translate(-611.618 473.919)" fill="none" stroke="#fff" stroke-linecap="round" stroke-linejoin="round" stroke-width="3"/>
        <path id="Path_304" data-name="Path 304" d="M723.981-398.927c-.09.076-.172.161-.253.241C723.808-398.766,723.891-398.851,723.981-398.927Z" transform="translate(-611.618 473.919)" fill="none" stroke="#fff" stroke-linecap="round" stroke-linejoin="round" stroke-width="3"/>
      </g>
      <path id="Path_306" data-name="Path 306" d="M787.77-465.89c5.17-33.128-22.2-23.348-27.958-33.32-7.165-12.416-6.81-29.447-8.421-31.715-2.355-3.321-6,17.321-8.923,14.59-1.383-1.3-2.48-2.067-3.407-3.862h0c-2.05-2.855.154-6.07-.374-10.013-.1-.721-3.164-2.355-6.783-4.387-3.235-1.81-6.875-3.987-9.747-5.329-.292,2.337-.415,4.4-.662,6-3.121-.49-6.658-1.076-9.432-2.843.078.353-.378,10.347-3.09,14.89a26.072,26.072,0,0,1-8.572,8.765,46.5,46.5,0,0,1-9.412,3.092c-.609,2.143-2.312,11.377-2.9,13.119-1.2,3.562-4.42,12.747-8.832,15.019-1.99,1.021-18.293,9.841-30.718,4.978-1.912,1.944-11.336,10.109-14.447,13.2a117.009,117.009,0,0,0-7.831,8.908c-.376.466-.917,1.013-1.5,1.607,14.721-1.791,26.716-3.382,34.944-4.087,1.456-.016,28.013-1.981,53.371-6.058,26.042-4.193,53.367-10.335,55.018-10.576C768.161-474.282,787.9-462.075,787.77-465.89Z" transform="translate(-553.166 768.944)" fill="none" stroke="#fff" stroke-linecap="round" stroke-linejoin="round" stroke-width="3"/>
      <path id="Path_307" data-name="Path 307" d="M868.824-725.457c2.081-10.791-7.948-3.221-11.355-13.438-1.836-5.505-3.589-10.646-5.486-16.073-4.959-14.2-18.481-21.287-25.174-3.043-4.862,13.266-2.3,32.4-15.115,50.214,3.264,11.448,10.578,41.715,18.23,49.047a78.27,78.27,0,0,0,3.323-19.706c.237-4.234,9.071-8.832,11.491-12.392,1.744-2.561,5.731-4.9,5.541-13.6C856.525-703.318,887.562-724.514,868.824-725.457Z" transform="translate(-553.166 768.944)" fill="none" stroke="#fff" stroke-linecap="round" stroke-linejoin="round" stroke-width="3"/>
      <g id="Group_250" data-name="Group 250" transform="translate(233.464 114.961)">
        <path id="Path_308" data-name="Path 308" d="M837.6-631.591c-1.746-2.878-7.948-8.137-13.438-12.3.978-3.266,2.506-6.262,4.046-10.092h0s-28.446,10.476-41.576,15.264c0,2.839.2,5.764.38,9.461s.345,8.174.345,8.174c4.163-.721,22.739-5.866,28.545-7.541,0,0,5.486-1.473,6.846-1.642a32.247,32.247,0,0,1,4.067,3.689c.612.633,2.351,2.328,3.923,3.7,1.69,1.469,3.74,3.06,5.4,4.379C839-622.887,839.792-627.973,837.6-631.591Z" transform="translate(-786.63 653.983)" fill="none" stroke="#fff" stroke-linecap="round" stroke-linejoin="round" stroke-width="3"/>
      </g>
      <g id="Group_251" data-name="Group 251" transform="translate(246.502 61.161)">
        <path id="Path_309" data-name="Path 309" d="M830-658.821c-7.68-7.3-15.137-37.534-18.448-48.962a68.6,68.6,0,0,1-7.578,8.491c1.487,2.474,3.589,4.659,3.556,7.774-.04,3.276-2.146,4.677-3.948,5.474-4.218,1.863-3.72,7.116-3.7,11.31.016,3.842-.513,26.083.026,31.277,13.232-4.925,28.306-10.55,28.4-10.586C828.874-655.5,829.452-657.061,830-658.821Z" transform="translate(-799.668 707.783)" fill="none" stroke="#fff" stroke-linecap="round" stroke-linejoin="round" stroke-width="3"/>
      </g>
      <path id="Path_310" data-name="Path 310" d="M835.328-617.587a10.491,10.491,0,0,0,.8-.911c-1.658-1.319-3.707-2.909-5.4-4.379-1.571-1.371-3.311-3.066-3.923-3.7a32.252,32.252,0,0,0-4.067-3.689c-1.36.168-6.846,1.642-6.846,1.642,1.254,3.1,4.753,13.669,5.443,15.65,2.5-.807,4.98-1.6,7.175-2.337C831.5-616.319,834.253-616.507,835.328-617.587Z" transform="translate(-553.166 768.944)" fill="none" stroke="#fff" stroke-linecap="round" stroke-linejoin="round" stroke-width="3"/>
      <path id="Path_311" data-name="Path 311" d="M815.9-628.623c-5.807,1.675-24.382,6.82-28.546,7.541,0,12.392,3.789,19.3,6.368,20.768h0c3.934-3.787,8.391-5.26,13.52-7.67,2.86-1.344,8.6-3.207,14.21-5.023C819.8-618.372,817.983-623.306,815.9-628.623Z" transform="translate(-553.166 768.944)" fill="none" stroke="#fff" stroke-linecap="round" stroke-linejoin="round" stroke-width="3"/>
      <g id="Group_252" data-name="Group 252" transform="translate(221.22 69.49)">
        <path id="Path_312" data-name="Path 312" d="M799.872-674.8c0-4.193-.468-9.445,3.756-11.289,1.8-.792,3.918-2.181,3.97-5.458.051-3.115-2.042-5.309-3.513-7.788.037-.039.077-.072.112-.114a58.772,58.772,0,0,1-6.524,5.535c-1.654,1.168-6.307,2.1-9.153,2.4-4.31.453-8.5.278-14.134.417,6.256,19.9,12.241,52.383,12.241,52.383l13.13-4.814C799.241-648.734,799.872-670.959,799.872-674.8Z" transform="translate(-774.386 699.454)" fill="none" stroke="#fff" stroke-linecap="round" stroke-linejoin="round" stroke-width="3"/>
      </g>
      <path id="Path_316" data-name="Path 316" d="M663.487-539.927c1.879-6.077.749-13.019.752-19.179.013-6.038-1.032-11.706-1.886-17.411-.523-3.5-.674-8.056-2.252-11.61-12.7,10.01-31.586,18.234-47.9,10.474a18,18,0,0,1-4.947-3.284c-1.957.353-4.01.68-6.214,1.015-4.131.62-17.791,1.42-17.791,1.42,1.211,12.378,7.443,63.18,7.651,69.318,5.4-4.5,8.922,4.941,11.653,6.475,3.145,1.771,11.712.4,15.327-.376,3.009-.643,6.254-1.659,9.651-1.056,2.792.505,6.871,1.681,9.653,1.432,7.5-.65,4.02-6.422,5.051-11.228.561-2.647,5.894-9.149,7.99-10.936,2.508-2.14,4.408-.9,6.988-2.5C661.5-530.041,662.069-535.346,663.487-539.927Z" transform="translate(-553.166 768.944)" fill="none" stroke="#fff" stroke-linecap="round" stroke-linejoin="round" stroke-width="3"/>
      <path id="Path_317" data-name="Path 317" d="M722.441-542.452c-6.064-.063-12.562.11-18.174,1.514-5.233,1.313-10.787,3.123-12.488,8.519-.517-2.075-1.648-4.88-2.606-7.508H671.182l-4.8-17.656-2.134-.482c.1,5.9,1.007,12.4-.766,18.138-1.419,4.581-1.989,9.886-6.279,12.555-2.58,1.6-4.481.359-6.988,2.5-2.1,1.787-7.43,8.289-7.99,10.936-1.011,4.722,2.32,10.362-4.665,11.185-.623,22.113,10.974,25.842,10.974,25.842,12.425,4.863,28.728-3.958,30.718-4.978,4.412-2.273,7.627-11.457,8.832-15.019.588-1.742,2.29-10.975,2.9-13.119a46.5,46.5,0,0,0,9.412-3.092,26.079,26.079,0,0,0,8.571-8.765c2.712-4.543,3.168-14.537,3.09-14.89,2.774,1.767,6.311,2.353,9.432,2.843.247-1.6.37-3.658.662-6,.057.025.118.057.171.08A25.528,25.528,0,0,0,722.441-542.452Z" transform="translate(-553.166 768.944)" fill="none" stroke="#fff" stroke-linecap="round" stroke-linejoin="round" stroke-width="3"/>
      <g id="Group_265" data-name="Group 265" transform="translate(121.026 77.808)">
        <path id="Path_345" data-name="Path 345" d="M773.779-597.874c-.705-.241-1.4-.482-2.04-.727C772.382-598.356,773.069-598.115,773.779-597.874Z" transform="translate(-674.192 691.136)" fill="none" stroke="#fff" stroke-linecap="round" stroke-linejoin="round" stroke-width="3"/>
        <path id="Path_346" data-name="Path 346" d="M792.078-598.566a22.639,22.639,0,0,1,2.214-2.253c-.19.17-.388.321-.578.5-2.578-1.467-6.367-8.376-6.367-20.768,0,0-.165-4.473-.345-8.174s-.38-6.622-.38-9.461c0,0-5.985-32.478-12.241-52.383.527-.014,1.027-.022,1.532-.031-10.021.127-21.518.756-30.869,7.329-9.236,6.5-12.2,16.688-13.806,26.287-1.807,10.78-1.581,20.626-9.906,22.893-4.236,1.152-12.617,2.034-13.881.7-2.208-2.333-5.233-1.842-8.936-1.368-1.029.133-10.811,2.755-11.693,4.99-2.369,6.025,4.859,7.037,2.2,11.579-1.516,2.6-6.752,6.411-8.7,8.707s-4,4.814-6.13,7.369v.006l2.285,6.569s50.786-8.873,77.279-16.685a126.881,126.881,0,0,0,8.266,10.629s12.354-1.168,11.849,4.287c3.862,1.291,17.729,9.257,21.615,11.773,3.366-3.306,9.109-5.361,13.911-12.971C804.005-599.5,797.005-597.713,792.078-598.566Z" transform="translate(-674.192 691.136)" fill="none" stroke="#fff" stroke-linecap="round" stroke-linejoin="round" stroke-width="3"/>
      </g>
      <path id="Path_373" data-name="Path 373" stroke="#fff" d="M751.391-530.925s4.863,4.366,7.184,6.189,2.21,2.6,2.32,2.984.332.829.774.884.166-.442.553-.774,1.878-1.049,2.762-.442,2.929.5,2.984,1.216-1.436,5.249-1.547,5.857a9.931,9.931,0,0,0-.442,2.431c.166.221-.166.387.663.443s4.586-2.487,7.294-7.184,4.531-5.912,5.968-7.073,2.6-2.652,4.641-5.746,4.145-10.223,5.194-13.483,1.658-7.515,2.211-9.5,2.1-6.907,1.547-9.394-.884-3.094-1.216-3.205-.331,1.161-.11,1.326.442.94.663,1.216,0,.829-.442.663-1.6-1.437-3.426-1.547-2.984-.332-3.647-.995-.442-.608-.111-1.105a17.912,17.912,0,0,0,.885-1.879c.165-.331.663-.055.884-1.547s.663-2.044.884-2.21-.166-.608.552-.774l1.437-.331s-.055-.277.111.331a.839.839,0,0,0,1.1.553c.331-.111,0,1.879,1.215-.995s3.758-10.775,3.205-11.051-22.1-12.93-22.1-12.93a12.441,12.441,0,0,0-1.436.663c-.829.442-2.045,1.436-2.211,2.32a16.664,16.664,0,0,1-1.215,2.984,5.176,5.176,0,0,1-.995,1.879c-.608.608-1.492.829-1.768,1.216s-.553.331-.332.552.553,0,.553,0,.608.277.111.553a6.7,6.7,0,0,1-1,.442s1.216-.055-1.547,1.658-1.713,1.657-.884,3.205,1.657,2.1,1.215,2.541a2.278,2.278,0,0,1-.773.553h-.332s-.276.442-.11.663.5-.221.221.332a1.908,1.908,0,0,1-.663.773s.276.608-.664.774-.663-.387-1.215.331a1.26,1.26,0,0,0-.332,1.216s.332-.5.221.332,0,.718-.221.994-.718.111-.221.442.774.277.663.553-.386.221-.552.663-.387-.442-.111.773.442,1.327.442,1.327-.608,1.271.995,1.215,2.1,1.658,2.21,3.647,2.1,1.824,2.542,1.768.608.885.774,1.437a4.613,4.613,0,0,0,1.215,1.989c.5.332,3.15,2.984,3.647,3.537s.663.442.995,1.436.166,1.769-.884,1.879-1.105-.663-1.658-.11.663.884-.884,1.215a16.7,16.7,0,0,0-4.973,2.763c-.332.387-.442.884-1.1,1.216s-1.271-.221-1.548.552.056,1.161,0,1.658-1.27,2.21-2.431,2.21a4.836,4.836,0,0,0-3.757.995c-1.327,1.16-2.321,1.05-2.874,2.321a18.864,18.864,0,0,1-1.436,2.873c-.277.332-1.106.608-1.106,1.437s.056.884.553,1.326,1.271,1.1,1.1,1.547a8.739,8.739,0,0,0-.773,1.879A2.456,2.456,0,0,0,751.391-530.925Z" fill="none" transform="translate(-553.166 768.944)" stroke-linecap="round" stroke-linejoin="round" stroke-width="2.206" fill-rule="evenodd"/>
      <g id="Group_293" data-name="Group 293" transform="translate(106.933 156.187)">
        <path id="Path_374" data-name="Path 374" d="M660.1-588.127Z" transform="translate(-660.099 612.757)" fill="none" stroke="#fff" stroke-linecap="round" stroke-linejoin="round" stroke-width="3"/>
        <path id="Path_375" data-name="Path 375" d="M758.284-557.583c2.768-.495,9.318-1.08,10.476-2.93a9.157,9.157,0,0,0-.792-.693,4.613,4.613,0,0,1-1.215-1.989c-.166-.552-.332-1.492-.774-1.437s-2.431.221-2.542-1.768-.608-3.7-2.21-3.647-.995-1.215-.995-1.215-.165-.111-.442-1.327-.055-.331.111-.773.442-.387.552-.663-.165-.221-.663-.553,0-.166.221-.442.111-.166.221-.994-.221-.332-.221-.332a1.26,1.26,0,0,1,.332-1.216c.552-.718.276-.166,1.215-.331s.663-.774.663-.774a1.906,1.906,0,0,0,.664-.773c.276-.553-.056-.111-.221-.332s.11-.663.11-.663h.332a2.278,2.278,0,0,0,.773-.553c.442-.442-.387-.994-1.215-2.541s-1.879-1.492.884-3.205,1.547-1.658,1.547-1.658.254-.087.577-.234q.141-.381.289-.75a.443.443,0,0,1-.535-.011c-.221-.221.056-.166.332-.552a1.87,1.87,0,0,1,.622-.45c.314-.727.621-1.383.878-1.905a32.707,32.707,0,0,1,2.55-3.945,3.638,3.638,0,0,1,1.09-1.378c.276-.33.55-.664.84-.984.135.052.28.1.419.154a12.144,12.144,0,0,1,1.226-.554l.447.262c-.874-4.42-11.806-3.389-11.806-3.389a127.076,127.076,0,0,1-8.266-10.629c-26.492,7.811-77.279,16.685-77.279,16.685l-2.285-6.569c-4.175,5.006-8.683,10.158-13.427,13.987-.61.49-.664.526-.668.527,1.577,3.554,1.728,8.113,2.251,11.61.854,5.705,1.9,11.373,1.887,17.411,0,.343,0,.692.014,1.04l2.134.482,4.8,17.656h17.992c-.374-1.011-.719-2-.993-2.9C691.884-543.547,753.858-556.646,758.284-557.583Z" transform="translate(-660.099 612.757)" fill="none" stroke="#fff" stroke-linecap="round" stroke-linejoin="round" stroke-width="3"/>
      </g>
      <path id="Path_376" data-name="Path 376" stroke="#fff" d="M751.391-530.925s4.863,4.366,7.184,6.189,2.21,2.6,2.32,2.984.332.829.774.884.166-.442.553-.774,1.878-1.049,2.762-.442,2.929.5,2.984,1.216-1.436,5.249-1.547,5.857a9.931,9.931,0,0,0-.442,2.431c.166.221-.166.387.663.443s4.586-2.487,7.294-7.184,4.531-5.912,5.968-7.073,2.6-2.652,4.641-5.746,4.145-10.223,5.194-13.483,1.658-7.515,2.211-9.5,2.1-6.907,1.547-9.394-.884-3.094-1.216-3.205-.331,1.161-.11,1.326.442.94.663,1.216,0,.829-.442.663-1.6-1.437-3.426-1.547-2.984-.332-3.647-.995-.442-.608-.111-1.105a17.912,17.912,0,0,0,.885-1.879c.165-.331.663-.055.884-1.547s.663-2.044.884-2.21-.166-.608.552-.774l1.437-.331s-.055-.277.111.331a.839.839,0,0,0,1.1.553c.331-.111,0,1.879,1.215-.995s3.758-10.775,3.205-11.051-22.1-12.93-22.1-12.93a12.441,12.441,0,0,0-1.436.663c-.829.442-2.045,1.436-2.211,2.32a16.664,16.664,0,0,1-1.215,2.984,5.176,5.176,0,0,1-.995,1.879c-.608.608-1.492.829-1.768,1.216s-.553.331-.332.552.553,0,.553,0,.608.277.111.553a6.7,6.7,0,0,1-1,.442s1.216-.055-1.547,1.658-1.713,1.657-.884,3.205,1.657,2.1,1.215,2.541a2.278,2.278,0,0,1-.773.553h-.332s-.276.442-.11.663.5-.221.221.332a1.908,1.908,0,0,1-.663.773s.276.608-.664.774-.663-.387-1.215.331a1.26,1.26,0,0,0-.332,1.216s.332-.5.221.332,0,.718-.221.994-.718.111-.221.442.774.277.663.553-.386.221-.552.663-.387-.442-.111.773.442,1.327.442,1.327-.608,1.271.995,1.215,2.1,1.658,2.21,3.647,2.1,1.824,2.542,1.768.608.885.774,1.437a4.613,4.613,0,0,0,1.215,1.989c.5.332,3.15,2.984,3.647,3.537s.663.442.995,1.436.166,1.769-.884,1.879-1.105-.663-1.658-.11.663.884-.884,1.215a16.7,16.7,0,0,0-4.973,2.763c-.332.387-.442.884-1.1,1.216s-1.271-.221-1.548.552.056,1.161,0,1.658-1.27,2.21-2.431,2.21a4.836,4.836,0,0,0-3.757.995c-1.327,1.16-2.321,1.05-2.874,2.321a18.864,18.864,0,0,1-1.436,2.873c-.277.332-1.106.608-1.106,1.437s.056.884.553,1.326,1.271,1.1,1.1,1.547a8.739,8.739,0,0,0-.773,1.879A2.456,2.456,0,0,0,751.391-530.925Z" fill="#0054a4" transform="translate(-553.166 768.944)" stroke-linecap="round" stroke-linejoin="round" stroke-width="2.206" fill-rule="evenodd"/>
    </g>
    <g id="Group_295" data-name="Group 295" opacity="0.5">
      <g id="Group_242" data-name="Group 242" transform="translate(622.575 401.223)">
        <path id="Path_270" data-name="Path 270" d="M535.808-292.191V-402.4c-15.783,1.618-25.916,3.1-43.717,4.925-2.837,5.482-18.985,38.289-18.546,42.011.366,3.1,1.44,4.714,3.025,7.316,3.8,6.234,5.6,12.513,3.409,19.551-1.552,4.978-4.6,9.326-6.624,14.1-2.588,6.111-4,10.29-4.107,16.882,8.838,0,36.659-.7,40.254-.7-2.01,5.854-.95,10.584,1.844,14.212a53.215,53.215,0,0,0,14.116-3.36c3.691-1.461,7.124-3.233,10.351-4.733Z" transform="translate(-469.248 402.404)" fill="none" stroke="#fff" stroke-linecap="round" stroke-linejoin="round" stroke-width="1"/>
      </g>
      <g id="Group_243" data-name="Group 243" transform="translate(568.391 455.646)">
        <path id="Path_271" data-name="Path 271" d="M522.858-286.532c.233-.075.458-.147.69-.227C523.316-286.679,523.091-286.606,522.858-286.532Z" transform="translate(-415.063 347.981)" fill="none" stroke="#fff" stroke-linecap="round" stroke-linejoin="round" stroke-width="1"/>
        <path id="Path_272" data-name="Path 272" d="M520.74-285.881c.286-.076.572-.157.852-.245C521.312-286.038,521.026-285.958,520.74-285.881Z" transform="translate(-415.063 347.981)" fill="none" stroke="#fff" stroke-linecap="round" stroke-linejoin="round" stroke-width="1"/>
        <path id="Path_273" data-name="Path 273" d="M517.834-285.15c-.772.169-1.556.325-2.345.462C516.279-284.825,517.062-284.982,517.834-285.15Z" transform="translate(-415.063 347.981)" fill="none" stroke="#fff" stroke-linecap="round" stroke-linejoin="round" stroke-width="1"/>
        <path id="Path_274" data-name="Path 274" d="M504.657-267.851c0-4.978-9.1-6.23-10.105-7.627-3.174-4.392,3.5-8.029,12.492-8.327,1.448-.045,2.882-.149,4.3-.3-2.794-3.629-3.854-8.358-1.844-14.212-3.6,0-31.416.7-40.254.7.108-6.593,1.519-10.772,4.107-16.882,2.024-4.778,5.072-9.126,6.624-14.1,2.175-6.977.423-13.2-3.307-19.382-20.119.317-48.619,1.279-61.17,1.279-.317,6.232-.453,12.692-.435,18.865.02,7.216,3.579,11.949,6.244,18.172,2.306,5.388,3.887,8.231,4.175,14a40.715,40.715,0,0,1-.392,9.461,53.133,53.133,0,0,0-1.32,9.083c0,2.277,1.142,5,2.745,7.6,8.27,1.16,16.449,5.592,25.5,3.505,3.319-.764,11.2-3.6,14.557-2.927,4.33.872,4.271,6.785,7.159,8.864,6.563,4.7,17.233,2.173,25.482,1.759-.684-1.569-2.815-4-1.883-5.8C498.724-266.806,504.657-265.051,504.657-267.851Z" transform="translate(-415.063 347.981)" fill="none" stroke="#fff" stroke-linecap="round" stroke-linejoin="round" stroke-width="1"/>
        <path id="Path_275" data-name="Path 275" d="M514.88-284.58c-.48.08-.964.153-1.448.218C513.916-284.427,514.4-284.5,514.88-284.58Z" transform="translate(-415.063 347.981)" fill="none" stroke="#fff" stroke-linecap="round" stroke-linejoin="round" stroke-width="1"/>
        <path id="Path_276" data-name="Path 276" d="M512.907-284.29c-.515.065-1.032.133-1.552.184C511.874-284.157,512.391-284.225,512.907-284.29Z" transform="translate(-415.063 347.981)" fill="none" stroke="#fff" stroke-linecap="round" stroke-linejoin="round" stroke-width="1"/>
        <path id="Path_277" data-name="Path 277" d="M529.486-289.212c-1.311.609-2.643,1.2-4.024,1.75,1.377-.547,2.721-1.136,4.028-1.738Z" transform="translate(-415.063 347.981)" fill="none" stroke="#fff" stroke-linecap="round" stroke-linejoin="round" stroke-width="1"/>
        <path id="Path_278" data-name="Path 278" d="M518.659-285.335c.317-.076.631-.161.95-.237C519.29-285.5,518.976-285.411,518.659-285.335Z" transform="translate(-415.063 347.981)" fill="none" stroke="#fff" stroke-linecap="round" stroke-linejoin="round" stroke-width="1"/>
      </g>
      <g id="Group_244" data-name="Group 244" transform="translate(302.807 363.589)">
        <path id="Path_279" data-name="Path 279" d="M426.522-269.519c-1.311-2.388-2.747-5.323-2.745-7.6A53.134,53.134,0,0,1,425.1-286.2a40.767,40.767,0,0,0,.392-9.461c-.288-5.774-1.869-8.617-4.175-14-2.665-6.222-6.224-10.956-6.244-18.172-.018-6.173.118-12.633.435-18.865l-.439-11.916-9.712-.253-1.262-3.284s-93.364-2.089-110.777-23.718c0-9.573,1.007-47.945,1.007-47.945l-59.177-6.222L223.667-324.3l-74.187-8.583v3.421a8.317,8.317,0,0,1,2,.786c4.927,2.794,8.183,10.152,11.313,14.281,4.267,5.629,13.828,8.419,17.978,13.434,8.137,9.847,4.334,12.882,8.517,22.149,6.98,15.456,23.089,25.354,29.333,26.3a99,99,0,0,1,17.11-19.623,2.715,2.715,0,0,1,2.2.065c.821.457,1.646,2.445,2.524,2.778,1.638.617,5.239-.58,6.938-1.009,3.056-.782,6.642-3.685,8.971-1.4,4.53,4.441,3.131,11.387,5.666,14.9,2.6,3.6,9.741,5.713,11.5,11.02,2.122,6.4,5.456,15.585,6.161,16.485,2.114,2.7,4.681,3.552,6.942,6.559,6.364,8.472,8.767,19.226,12.868,29.151,4.493,10.868,13.16,20.162,27.548,21.532,5.607.529,12.425,1.914,14.087-1.224.406-.768-1.608-2.429-1.577-3.719.022-.968-.594-3.946-.821-5.87-.292-2.5.737-6.219.505-8.832-.235-2.69-4.328-5.507-4.163-7.821.209-2.962,2.855-5.932,3.842-8.507,1.763-4.592,4.869-8.771,9.7-13.236,9.065-8.372,19.165-15.6,30.115-20.4,5.586-2.453,14.68-3.311,16.526-9.972.972-3.5-2.5-5.143-1.638-7.945.658-2.161,3.356-4.755,6.744-5.807,5.656-1.757,5,2.831,9.731,2.907,4.786.076,5.067-6.6,10.521-7.194A33.624,33.624,0,0,1,426.522-269.519Z" transform="translate(-149.48 440.038)" fill="none" stroke="#fff" stroke-linecap="round" stroke-linejoin="round" stroke-width="1"/>
      </g>
      <g id="Group_245" data-name="Group 245" transform="translate(247.775 341.099)">
        <path id="Path_280" data-name="Path 280" d="M149.479-332.888l74.187,8.583,11.475-115.738.891-8.916s-75.667-6.851-121.453-13.569c-4.8,32.4-15.472,107.872-20.131,140.9,7.155,1.393,14.022,2,19.326.984-.245-5.3-5.78-7.676-.944-10.407,4.351-2.461,7.19,3.4,17.3,2.143,4.7-.59,14-1.991,19.347-.556Z" transform="translate(-94.448 462.528)" fill="none" stroke="#fff" stroke-linecap="round" stroke-linejoin="round" stroke-width="1"/>
        <path id="Path_281" data-name="Path 281" d="M181.567-299.968c-.253-.325-.515-.658-.8-1C181.052-300.626,181.317-300.293,181.567-299.968Z" transform="translate(-94.448 462.528)" fill="none" stroke="#fff" stroke-linecap="round" stroke-linejoin="round" stroke-width="1"/>
        <path id="Path_282" data-name="Path 282" d="M181.6-299.928c.245.313.476.623.7.921h0C182.075-299.3,181.847-299.615,181.6-299.928Z" transform="translate(-94.448 462.528)" fill="none" stroke="#fff" stroke-linecap="round" stroke-linejoin="round" stroke-width="1"/>
      </g>
      <path id="Path_283" data-name="Path 283" d="M293.313-385.875c17.413,21.63,110.777,23.718,110.777,23.718,2.034-6.853,4.377-28.745,2.473-43.649-1.691-13.264-5.752-20.948-5.752-20.948v-18.673s-31.588,1.914-69.646,1.511c-37.021-.382-80.325-3.052-95.131-5.043-.431,4.3-.891,8.916-.891,8.916l59.178,6.222S293.313-395.447,293.313-385.875Z" transform="translate(153.327 803.627)" fill="none" stroke="#fff" stroke-linecap="round" stroke-linejoin="round" stroke-width="1"/>
      <g id="Group_246" data-name="Group 246" transform="translate(554.137 367.791)">
        <path id="Path_284" data-name="Path 284" d="M476.57-348.152c-1.585-2.6-2.658-4.216-3.025-7.316-.439-3.722,15.709-36.529,18.546-42.011,0,0,8.961-16.524,10.435-29.278-5.578,1.264-14.412,2.273-14.412,2.273s1.771-4.771,4.543-11.352c-30.277,2.269-91.847,2.518-91.847,2.518v6.565s4.061,7.684,5.752,20.948c1.9,14.9-.439,36.8-2.473,43.649l1.262,3.284,9.712.253L415.5-346.7c12.551,0,41.051-.962,61.17-1.279Z" transform="translate(-400.81 435.836)" fill="none" stroke="#fff" stroke-linecap="round" stroke-linejoin="round" stroke-width="1"/>
      </g>
      <path id="Path_285" data-name="Path 285" d="M18.578-479.428c-2.208,9.367-2.649,14.949-4.73,23.659-4.273-.394-7.5-.762-12.746-1.373-2.394,10.452-4.545,19.255-2.394,29.566,1.223,5.87,2.081,9.085,4.543,13.63-3.035,5.235-10.323,11.2-13.628,16.275-1.791,2.747-3.352,8.242-2.649,11.728.588,2.921,1.577,3.893.378,7.194-1.019,2.81-3.521,5.407-6.268,7.488,1.607.923,3.339,1.9,5.319,2.925,14.363,7.416,18.562,10,32.7,17.537a338.881,338.881,0,0,0,44.323,19.933c3.525,1.313,8.832,3.282,14.106,4.855,7.553,2.251,15.017,3.991,16.91,4.381,4.659-33.026,15.334-108.5,20.131-140.9-6.1-1.226-21.637-3.75-43.575-7.437C49.505-473.584,26.49-477.749,18.578-479.428Z" transform="translate(153.327 803.627)" fill="none" stroke="#fff" stroke-linecap="round" stroke-linejoin="round" stroke-width="1"/>
      <path id="Path_286" data-name="Path 286" d="M1.1-457.142c5.247.611,8.474.98,12.747,1.373,2.081-8.711,2.521-14.292,4.729-23.659l22.9-123.584s-71.915-13.626-105.6-24.6c-6.814,23.847-21.195,73.053-21.195,73.053L-1.3-427.652C-3.433-437.935-1.285-446.715,1.1-457.142Z" transform="translate(153.327 803.627)" fill="none" stroke="#fff" stroke-linecap="round" stroke-linejoin="round" stroke-width="1"/>
      <g id="Group_247" data-name="Group 247" transform="translate(171.906 200.614)">
        <path id="Path_287" data-name="Path 287" d="M91.065-568.19s2.629-14,4.921-25.738c-18.548-1.134-54.507-9.085-54.507-9.085l-22.9,123.584c7.911,1.679,30.926,5.846,52.424,9.463,21.937,3.687,37.478,6.211,43.575,7.437L129.294-562.89Z" transform="translate(-18.579 603.013)" fill="none" stroke="#fff" stroke-linecap="round" stroke-linejoin="round" stroke-width="1"/>
      </g>
      <path id="Path_288" data-name="Path 288" d="M261.011-549.646l-8.354,102.313s-12.466-1.224-16.624-1.63c-14.535-1.407-38.29-3.546-61.027-6.119-31.218-3.534-60.428-7.451-60.428-7.451s10.5-71.6,14.716-100.362c10.952,1.344,33.755,5,54.25,6.941C221.923-552.328,261.011-549.646,261.011-549.646Z" transform="translate(153.327 803.627)" fill="none" stroke="#fff" stroke-linecap="round" stroke-linejoin="round" stroke-width="1"/>
      <path id="Path_289" data-name="Path 289" d="M398.61-501.488c-1.642-1.136-3.907-1.368-5.3-5.01-1.755-4.581.809-6.44,3.49-9.586-2.684-.692-6.859-3.679-9.686-7.079l-128.078-2.225-6.377,78.06c20.182,1.593,51.064,3.135,78.507,3.417,38.057.4,69.646-1.511,69.646-1.511C400.81-455.769,398.872-497.306,398.61-501.488Z" transform="translate(153.327 803.627)" fill="none" stroke="#fff" stroke-linecap="round" stroke-linejoin="round" stroke-width="1"/>
      <path id="Path_290" data-name="Path 290" d="M510.956-448.831c-.456-1.509-4.034-3.662-6.559-9.968a57.37,57.37,0,0,0-5.552-10.975c-1.522-2.273-4.591-4.657-6.926-6.248-2.553-1.742-4.589-.915-5.566-3.721-1.009-2.9-.364-10.143,2.8-14.008-1.763-2.147-3.869-4.608-8.6-3.593a20.683,20.683,0,0,0-4.065-9.968c-2.612-3.677-6.783-3.215-10.319-7-5.292-5.672-5.045-14.89-5.164-21.426-10.468,0-54.761,0-79.62.67,0,0,2.379,7.427,4.99,10.971,2.782,3.775,7.5,7.263,10.429,8.019-2.68,3.146-5.245,5.006-3.489,9.586,1.395,3.642,3.66,3.873,5.3,5.01.263,4.179,2.2,45.716,2.2,56.059v12.108s61.57-.249,91.847-2.518c-2.772,6.581-4.543,11.352-4.543,11.352s8.834-1.009,14.412-2.273a86.618,86.618,0,0,1,2.937-13.5C506.326-443.088,511.884-445.771,510.956-448.831Z" transform="translate(153.327 803.627)" fill="none" stroke="#fff" stroke-linecap="round" stroke-linejoin="round" stroke-width="1"/>
      <path id="Path_326" data-name="Path 326" d="M473.735-587.115c-2.061-1.979-4.093-4.371-6.17-6.785l-5.186-5.7c2.257-3.662,1.546-8.3-.439-12.743-33.214,1.434-94.567,2.143-94.567,2.143s.127,16.4-5.541,20.44c6.683,6.651,12.982,28.236,15.38,42.015,1.493,8.575.319,12.678.319,12.678h3.846l79.62-.67a30.246,30.246,0,0,1,2.894-6.838c2.1-3.666,6.058-3.654,2.271-14.067,4.163-1.322,13.342-8.513,14.955-14.763C482.866-578.211,473.735-587.115,473.735-587.115Z" transform="translate(153.327 803.627)" fill="none" stroke="#fff" stroke-linecap="round" stroke-linejoin="round" stroke-width="1"/>
      <g id="Group_257" data-name="Group 257" transform="translate(508.995 54.891)">
        <path id="Path_327" data-name="Path 327" d="M455-622.693c-3.7-4.081-7.282-8.642-10.6-11.355-4.493-3.677-8.37-5.351-10.219-10.789-.9-2.663-.349-10.437-.19-13.436-1.691-.686-7.192-9.841,5.619-15.585.241-4.712-.272-10.721-.272-17.5a7.532,7.532,0,0,1-1.94-.98c-4.165-2.937,25.6-25.632,34.919-30.375-3.826-3.454-8.4-5.321-12.966-4.635-3.352.5-6.381,3.67-9.933,2.312-10.607-4.044-14.149-9.571-17.793-10.924-4.112-1.528-8.734,2.122-16.747.946-13.53-1.991-22.331-3.879-21.385-13.722-5.693,8.283-10.485,6.626-19.5,6.626-3.938,0-10.433-.145-18.324-.4,1.068,9.385,3.057,26.771,4.986,42.977,1.254,10.552,4.733,21.967,4.065,28.011-.261,2.373-3,7.647-2.89,10.031.086,1.912,1.379,3.975,4.028,5.864.376,9.655,1,17.762,1.512,45.422l37.842-.588,56.725-1.556A41.345,41.345,0,0,0,455-622.693Z" transform="translate(-355.668 748.736)" fill="none" stroke="#fff" stroke-linecap="round" stroke-linejoin="round" stroke-width="1"/>
      </g>
      <g id="Group_258" data-name="Group 258" transform="translate(386.582 53.817)">
        <path id="Path_328" data-name="Path 328" d="M366.814-742.207l1.824.037Z" transform="translate(-233.255 749.81)" fill="none" stroke="#fff" stroke-linecap="round" stroke-linejoin="round" stroke-width="1"/>
        <path id="Path_329" data-name="Path 329" d="M360.658-699.532c-1.93-16.207-3.918-33.592-4.986-42.977q2.06.064,3.977.12c-23.459-.682-63.112-2.51-81.793-4.267-7.639-.715-22.051-1.83-38.251-3.154l-6.35,75.265,131.468,3.025C365.391-677.565,361.912-688.98,360.658-699.532Z" transform="translate(-233.255 749.81)" fill="none" stroke="#fff" stroke-linecap="round" stroke-linejoin="round" stroke-width="1"/>
        <path id="Path_330" data-name="Path 330" d="M359.78-742.386l2.222.063Z" transform="translate(-233.255 749.81)" fill="none" stroke="#fff" stroke-linecap="round" stroke-linejoin="round" stroke-width="1"/>
        <path id="Path_331" data-name="Path 331" d="M364.617-742.256l1.949.045Z" transform="translate(-233.255 749.81)" fill="none" stroke="#fff" stroke-linecap="round" stroke-linejoin="round" stroke-width="1"/>
        <path id="Path_332" data-name="Path 332" d="M362.3-742.313c.709.016,1.395.035,2.069.049C363.7-742.278,363.017-742.3,362.3-742.313Z" transform="translate(-233.255 749.81)" fill="none" stroke="#fff" stroke-linecap="round" stroke-linejoin="round" stroke-width="1"/>
      </g>
      <g id="Group_259" data-name="Group 259" transform="translate(380.526 129.08)">
        <path id="Path_333" data-name="Path 333" d="M367.372-610.205c-.515-27.66-1.136-35.767-1.513-45.422-2.649-1.889-3.942-3.952-4.028-5.864-.108-2.384,2.629-7.659,2.89-10.031l-131.468-3.025L227.2-603.012s76.127,3.752,100.715,5.772c3.558.29,8.828,3.948,12.4,4.071,2.051.069,6.838-1.027,8.9-1.042,3.662-.025,12.625,4.447,12.625,4.447l1.411-1.393C367.472-596.657,367.372-610.205,367.372-610.205Z" transform="translate(-227.199 674.547)" fill="none" stroke="#fff" stroke-linecap="round" stroke-linejoin="round" stroke-width="1"/>
      </g>
      <path id="Path_334" data-name="Path 334" d="M109.359-667.987c-2.651,19.68-13.374,74.06-13.374,74.06l-4.921,25.738s42.344,5.637,66.807,9.234c23.908,3.509,65.684,6.481,65.684,6.481l3.644-50.538,4.3-50.72S153.122-660.795,109.359-667.987Z" transform="translate(153.327 803.627)" fill="none" stroke="#fff" stroke-linecap="round" stroke-linejoin="round" stroke-width="1"/>
      <g id="Group_260" data-name="Group 260" transform="translate(191.879 24.711)">
        <path id="Path_335" data-name="Path 335" d="M239.6-749.81c-25.758-2.1-56.047-4.741-70.868-7.169-18.634-3.056-35.005-5.689-52.31-8.158,0,0-30.16-4.914-41.637-7.067-6.489-1.215-20.021-3.813-34.016-6.712-.789,5.662-1.354,11.585-1.928,15.435-.688,4.559-.194,6.154,1.751,10.329,3.041,6.534.756,7.858.756,11.1,0,4.792,11.818,21.032,12.49,21.7.98.97,4,2.392,4.543,3.536,1.558,3.3-1.177,5.2-3.342,7.38-.615.615-3.148,2.19-3.534,3.28-.693,1.955,1.062,3.458,1.2,3.909.582,1.91.6,10.049.061,12.506A23.446,23.446,0,0,0,63.245-693.1c1.183,2.77,1.922,8.225,3.344,12.6a96.645,96.645,0,0,1,3.18,10.962c.509,2.572,2.139,9.034,3.127,10.879,2.435,4.541,15.854,1.689,20.628,1.7,4.586.012,10.321-2.251,14.574-2.668.513-3.18.944-6.023,1.262-8.37C153.124-660.8,231.5-653.739,231.5-653.739l1.759-20.815Z" transform="translate(-38.552 778.916)" fill="none" stroke="#fff" stroke-linecap="round" stroke-linejoin="round" stroke-width="1"/>
      </g>
      <g id="Group_261" data-name="Group 261" transform="translate(140.597 21.172)">
        <path id="Path_336" data-name="Path 336" d="M92.9-577.791l3.086-16.136c-1.06,5.435-2.2,11.354-3.107,16.144Z" transform="translate(12.731 782.455)" fill="none" stroke="#fff" stroke-linecap="round" stroke-linejoin="round" stroke-width="1"/>
        <path id="Path_337" data-name="Path 337" d="M37.983-584.137l3.5-18.874-3.5,18.874Z" transform="translate(12.731 782.455)" fill="none" stroke="#fff" stroke-linecap="round" stroke-linejoin="round" stroke-width="1"/>
        <path id="Path_338" data-name="Path 338" d="M93.523-656.947c-4.775-.014-18.193,2.839-20.628-1.7-.988-1.846-2.618-8.307-3.127-10.879a96.641,96.641,0,0,0-3.18-10.962c-1.422-4.379-2.161-9.833-3.344-12.6a23.447,23.447,0,0,1-10.474,3.356c.543-2.457.521-10.6-.061-12.506-.137-.451-1.892-1.953-1.2-3.909.386-1.089,2.919-2.665,3.534-3.28,2.165-2.179,4.9-4.077,3.342-7.38-.539-1.144-3.564-2.567-4.544-3.536-.672-.666-12.49-16.906-12.49-21.7,0-3.246,2.285-4.571-.756-11.1-1.945-4.175-2.439-5.77-1.751-10.329.574-3.85,1.138-9.772,1.928-15.435.174.037.347.071.519.11-5.758-1.193-11.606-2.437-17.086-3.658-1,3.889-2.134,7.764-2.927,11.522-1.659,7.827-10.874,56.607-9.071,59.046,4.289,5.805,3.105,5.1,3.785,8.834C17-697.5,4.636-682.615-.663-672.774c2.526,4.543,3.889,5.983,3.914,6.814-1.895,3.405-3.791,8.552-5.932,13.372-3.442,7.751-10.6,23.847-10.016,38.316C15.4-607.942,41.477-603,41.477-603s35.959,7.951,54.507,9.085c0,0,8.319-42.182,12.112-65.69C103.843-659.2,98.106-656.937,93.523-656.947Z" transform="translate(12.731 782.455)" fill="none" stroke="#fff" stroke-linecap="round" stroke-linejoin="round" stroke-width="1"/>
      </g>
      <g id="Group_262" data-name="Group 262" transform="translate(48.259)">
        <path id="Path_339" data-name="Path 339" d="M32.692-780.614c-.051-.014-.1-.025-.153-.035C32.592-780.639,32.641-780.627,32.692-780.614Z" transform="translate(105.068 803.627)" fill="none" stroke="#fff" stroke-linecap="round" stroke-linejoin="round" stroke-width="1"/>
        <path id="Path_340" data-name="Path 340" d="M.886-715.71c3.842,1.017,7.458,2.706,11.093,2.286-.088-8.756,7.778-50.342,9.3-57.516.794-3.758,1.93-7.633,2.927-11.522.033.006.068.016.1.024-8.8-1.963-16.667-3.867-21.69-5.405-12.758-3.912-26.179-6.832-36.337-9.338-5.239-1.293-21.252-7.539-28.066-6.279-4.641.862-.427,10.47-.449,14.859-.027,5.754-2.384,4.214-5.047,8.074-1.238,1.8-1.3,7.245-3.783,10.345-3.34,4.155-14.4,3.47-12.617,1.767,5.552-5.3,22.151-13.37,8.2-20.152-2.5-1.215-6.943-.208-9.714-1.042-2.137-.647-14.849-13.607-18.926-10.347-2.521,2.018,4.63,6.128,4.167,13.607-.382,6.189-9.114,22.511-2.868,22.282,8.544-.308,2.432,6.961,4,11.044,1.526,3.965,9.087,1.767,5.805,5.3-1.513,1.632-4.73,1.528-7.631,1.714a79.357,79.357,0,0,0,10.785,4.657c-1.515,5.68-.411,11.777,4.069,15.058,4.855,3.554,14.792-.1,20.321,1.795,2.5.862,3.131,2.255,5.305,3.648,2.915,1.861,13.029.837,16.481.317a87.811,87.811,0,0,1,17.98-.566c3.06.437,11.191,2.008,14.255,2.469C-5.354-717.716-4.382-717.1.886-715.71Z" transform="translate(105.068 803.627)" fill="none" stroke="#fff" stroke-linecap="round" stroke-linejoin="round" stroke-width="1"/>
      </g>
      <g id="Group_263" data-name="Group 263" transform="translate(13.273 57.445)">
        <path id="Path_341" data-name="Path 341" d="M-100.642-746.014c.966-.061,1.965-.1,2.923-.168C-98.677-746.111-99.676-746.077-100.642-746.014Z" transform="translate(140.054 746.182)" fill="none" stroke="#fff" stroke-linecap="round" stroke-linejoin="round" stroke-width="1"/>
        <path id="Path_342" data-name="Path 342" d="M-2.68-652.6c2.141-4.82,4.038-9.966,5.932-13.372-.026-.831-1.389-2.271-3.914-6.814,5.3-9.841,17.666-24.727,16.655-30.279-.68-3.736.5-3.029-3.785-8.834a3.292,3.292,0,0,1-.229-1.53h0c-3.634.419-7.251-1.27-11.093-2.286-5.268-1.389-6.24-2-12.337-2.923-3.064-.46-11.195-2.032-14.255-2.469a87.815,87.815,0,0,0-17.98.566c-3.452.519-13.566,1.544-16.481-.317-2.175-1.393-2.8-2.786-5.305-3.648C-71-726.4-80.938-722.749-85.793-726.3c-4.481-3.282-5.584-9.379-4.07-15.058a79.35,79.35,0,0,1-10.785-4.657c-2.071.133-3.983.406-4.986,1.569-.833.964-.27,4.927-1.262,7.819,0,0-2.271.758-3.168,5.533-.811,4.3-2.073,11.681-4.214,15.685-1.99,3.726-3.63,2.631-5.335,6.6-2.465,5.748-2.192,16.351-6.459,21.606-5.029,6.191-9.63,9.722-11.357,18.019a106.044,106.044,0,0,0-2.625,19.486c12.063,3.505,57.164,16.612,75.931,22.078,16.841,4.906,51.429,13.334,51.429,13.334C-13.277-628.751-6.122-644.848-2.68-652.6Z" transform="translate(140.054 746.182)" fill="none" stroke="#fff" stroke-linecap="round" stroke-linejoin="round" stroke-width="1"/>
        <path id="Path_343" data-name="Path 343" d="M92.9-577.792l3.086-16.136c-1.06,5.435-2.2,11.354-3.107,16.144Z" transform="translate(140.054 746.182)" fill="none" stroke="#fff" stroke-linecap="round" stroke-linejoin="round" stroke-width="1"/>
      </g>
      <g id="Group_264" data-name="Group 264" transform="translate(0 153.933)">
        <path id="Path_344" data-name="Path 344" d="M-18.914-371.26c2.747-2.081,5.249-4.679,6.268-7.488,1.2-3.3.21-4.273-.378-7.194-.7-3.485.858-8.981,2.649-11.728,3.3-5.078,10.593-11.04,13.628-16.275C.79-418.49-.068-421.7-1.29-427.575c-.016-.065-.026-.133-.039-.2.008.037.014.076.023.118L-85.319-554.563s14.381-49.205,21.195-73.053l-75.931-22.078c-.114,2.849-.149,6.038-.149,9.966,0,5.472-.425,11.661-3.785,16.15-3.047,4.071-9.236,8.842-9.336,13.373-.088,4.008,2.222,7.339,3.28,11.6a39.94,39.94,0,0,1,.758,16.406s-1.718,8.834-1.893,12.11c-.272,5.092,1.068,5.889,4.835,8.425,7.433,5.006,4.31,9.569,2.026,16.494,3.17.658,6.087-1.883,9.33-1.742a22,22,0,0,1,8.769,2.565c2.774,1.642,5.176,5.75.419,5.3-3.689-.353-5-4.545-9.426-2.97-.421,2.112.676,3.946.784,6,.225,4.332-2.641,4.79-3.8,8.035-.862,2.429.719,3.693,1.912,6.258,2.327,5.008,4.776,11.122,3.027,16.743-2.059,6.606-3.276,10.454.758,16.639,3.334,5.112,6.55,9.729,9.653,15.176,2.8,4.914,3.205,11.455,2.073,17.092-1.287,6.4-3.219,9.189,4.163,11.947,3.914,1.458,13.156,2.2,15.913,5.276,1.5,1.673,1.424,4.1,3.4,6.07,1.718,1.7,4.148,4.443,7.856,4.443,2.825,0,7.523,5.49,6.62,10.977,14.763,0,19.165,27.509,18.36,34.827C-34.129-380.9-29.029-377.071-18.914-371.26Z" transform="translate(153.327 649.694)" fill="none" stroke="#fff" stroke-linecap="round" stroke-linejoin="round" stroke-width="1"/>
      </g>
      <path id="Path_350" data-name="Path 350" d="M473.735-587.115c-2.061-1.979-4.093-4.371-6.17-6.785l-5.186-5.7c2.257-3.662,1.546-8.3-.439-12.743-33.214,1.434-94.567,2.143-94.567,2.143s.127,16.4-5.541,20.44c6.683,6.651,12.982,28.236,15.38,42.015,1.493,8.575.319,12.678.319,12.678h3.846l79.62-.67a30.246,30.246,0,0,1,2.894-6.838c2.1-3.666,6.058-3.654,2.271-14.067,4.163-1.322,13.342-8.513,14.955-14.763C482.866-578.211,473.735-587.115,473.735-587.115Z" transform="translate(153.327 803.627)" fill="none" stroke="#fff" stroke-linecap="round" stroke-linejoin="round" stroke-width="1"/>
      <path id="Path_351" data-name="Path 351" d="M473.735-587.115c-2.061-1.979-4.093-4.371-6.17-6.785l-5.186-5.7c2.257-3.662,1.546-8.3-.439-12.743-33.214,1.434-94.567,2.143-94.567,2.143s.127,16.4-5.541,20.44c6.683,6.651,12.982,28.236,15.38,42.015,1.493,8.575.319,12.678.319,12.678h3.846l79.62-.67a30.246,30.246,0,0,1,2.894-6.838c2.1-3.666,6.058-3.654,2.271-14.067,4.163-1.322,13.342-8.513,14.955-14.763C482.866-578.211,473.735-587.115,473.735-587.115Z" transform="translate(153.327 803.627)" fill="none" stroke="#fff" stroke-linecap="round" stroke-linejoin="round" stroke-width="1"/>
      <g id="Group_241" data-name="Group 241" transform="translate(689.256 396.811)">
        <path id="Path_268" data-name="Path 268" d="M608.905-307.853c-.02-.043-.039-.08-.063-.123.915-4.5.776-11.158-1.967-14.686-7.357-9.467-.721-11.9.719-16.277-1.468-4.114-7.047-19.431-9.449-27.147-2.845-9.134-9.226-29.625-11.244-40.73L535.929-402.4v110.213a33.612,33.612,0,0,1,9.387-3.223c4.25-.558,4.743,5.932,10.548,5.932.1,0,1.722-.425,3.752-.931-2.335-3.922-4.575-7.97-6.452-11.947,4.755-.233,48.159-4.056,55.725-5.529A.385.385,0,0,0,608.905-307.853Z" transform="translate(-535.929 406.816)" fill="none" stroke="#fff" stroke-linecap="round" stroke-linejoin="round" stroke-width="1"/>
        <path id="Path_269" data-name="Path 269" d="M613.558-303.835a.13.13,0,0,1-.043-.027A.13.13,0,0,0,613.558-303.835Z" transform="translate(-535.929 406.816)" fill="none" stroke="#fff" stroke-linecap="round" stroke-linejoin="round" stroke-width="1"/>
      </g>
      <g id="Group_249" data-name="Group 249" transform="translate(645.541 346.343)">
        <path id="Path_305" data-name="Path 305" d="M533.281-445.551a29.452,29.452,0,0,0,.382,6.814l-29.449,3.57q-.991,4.164-1.565,8.411c-1.473,12.754-10.435,29.278-10.435,29.278,17.8-1.826,27.934-3.307,43.718-4.925l50.973-4.412c7.137-.478,18.773-2.085,24.717-2.682v-.662c-.024-4.545,2.623-6.628,5.468-8.519,5-3.321,23.267-17.854,28.986-21.387,4.6-2.835,9.377-5.766,12.112-10.411.815-1.377,1.432-5.2,1.515-6.808C637.747-455.39,588.92-447.256,533.281-445.551Z" transform="translate(-492.214 457.284)" fill="none" stroke="#fff" stroke-linecap="round" stroke-linejoin="round" stroke-width="1"/>
      </g>
      <path id="Path_318" data-name="Path 318" d="M583.263-578.282c-4.865-.3-10.25.931-14.782,1.385-6.651.666-13.352.958-20.031,1.2a5.965,5.965,0,0,1-1.042-.067c-1.824,2.956-3.879,5-6.119,5a23.457,23.457,0,0,1-10.06-2.022c-.466,4.79.592,10.926.878,14.008.68,7.357,1.226,14.759,1.679,22.131.394,6.371,3.413,31.077,4.038,37.1.525,5.047-3.229,8.965-5.208,13.593-1.344,3.145-3.64,10.713-.217,10.877,2.774.131,3.348,1.26,4.528,1.52,4.79-.127,10.478-.261,14.43-1.979,2.451-1.068,3.425-3.317,5.748-4.1,1.2-.4,3.425.674,4.489-.037,1.191-.8.8-4.336,2.336-4.532,3.4-.437,2.233,5.95,5.779,1.63,1.489-1.806,4.694-5.882,5.713-8.274,1.939-4.569,3.466-8.207,6.054-9.964,1.238-.84,2.2-1.029,4.543-1.029,2.651,0,5.129-1.924,4.876-7.343C590.691-515.287,584.527-565.531,583.263-578.282Z" transform="translate(153.327 803.627)" fill="none" stroke="#fff" stroke-linecap="round" stroke-linejoin="round" stroke-width="1"/>
      <g id="Group_255" data-name="Group 255" transform="translate(657.521 293.238)">
        <path id="Path_319" data-name="Path 319" d="M504.194-435.092l.02-.076h0C504.2-435.141,504.2-435.115,504.194-435.092Z" transform="translate(-504.194 510.389)" fill="none" stroke="#fff" stroke-linecap="round" stroke-linejoin="round" stroke-width="1"/>
        <path id="Path_320" data-name="Path 320" d="M627.526-504.142c-3.4-.6-6.642.413-9.651,1.056-3.615.774-12.182,2.147-15.327.376-2.731-1.534-6.248-10.972-11.653-6.475.253,5.419-2.225,7.343-4.876,7.343-2.343,0-3.3.188-4.543,1.029-2.588,1.757-4.115,5.4-6.054,9.964-1.019,2.392-4.224,6.467-5.713,8.274-3.546,4.32-2.384-2.067-5.78-1.63-1.534.2-1.144,3.73-2.336,4.532-1.064.711-3.289-.364-4.488.037-2.324.778-3.3,3.027-5.748,4.1-3.952,1.718-9.639,1.851-14.429,1.979-1.023-.227-1.593-1.107-3.544-1.416-.129.072-.263.157-.392.221,4.332,1.6,2.083,7.278-.026,9.972-2.423,3.1-6.4,4.22-10.409,4.726,1.3,1.857,4.267,10.1-.239,9.269-2.721-.494-5.727-4.555-7.835-6.269-2.161,1.16-4.385,2.392-6.577,3.487-.129.069-.259.149-.386.221,1.73,2.353,3.266,3.562,3.554,4.52.933,3.06-4.626,5.742-5.49,8.575-.494,1.622-.95,3.329-1.369,5.088l29.442-3.574a29.455,29.455,0,0,1-.382-6.814c34.8-1.068,66.918-4.651,91.477-7.647.588-.594,1.128-1.14,1.5-1.607a117,117,0,0,1,7.831-8.908c3.111-3.088,12.535-11.254,14.447-13.2,0,0-11.6-3.728-10.973-25.842-.127.016-.251.031-.386.043C634.4-502.461,630.318-503.636,627.526-504.142Z" transform="translate(-504.194 510.389)" fill="none" stroke="#fff" stroke-linecap="round" stroke-linejoin="round" stroke-width="1"/>
      </g>
      <path id="Path_321" data-name="Path 321" d="M521.251-664.035c.12.621.227,1.238.325,1.855A14.375,14.375,0,0,0,522.9-664.7c2.692-7.182,3.117-12.075,5.615-14.216,8.168-6.99,54.3-6.538,46.919-15.431-1.736-2.092-11.052-2.173-13.609-1.387,1.066-3.742,1.318-4.369-3.381-4.369-6.03,0-13.5,9.026-26.21,9.369-5.227.145-10.952-4.939-18.452-6.814-5.652-1.409-10.505,3.991-11.356-4.351-9.629,1.526-21.412,10.8-31.369,13.3a37.722,37.722,0,0,0,8.846,3.744c5.364,1.266,20.266,6.736,27.633,7.274C523.059-676.441,519.958-670.832,521.251-664.035Z" transform="translate(153.327 803.627)" fill="none" stroke="#fff" stroke-linecap="round" stroke-linejoin="round" stroke-width="1"/>
      <g id="Group_266" data-name="Group 266" transform="translate(700.429 128.842)">
        <path id="Path_347" data-name="Path 347" d="M547.143-575.37l-.041.059Z" transform="translate(-547.102 674.785)" fill="none" stroke="#fff" stroke-linecap="round" stroke-linejoin="round" stroke-width="1"/>
        <path id="Path_348" data-name="Path 348" d="M583.243-578.5s13.666-.8,17.792-1.418c2.2-.335,4.257-.662,6.215-1.015-4.048-4.228-2.87-9.547,1.732-17.074,4.163-6.81,14.4-3.5,8.724-22.609-3.47-11.685-7.4-15.889-12.508-14.188-3.231,1.078-7.854,15.993-13.083,9.408-2.11-2.657-2.439-11.677.327-14.629,5.037-5.376,3.6-22.9-2.766-27.139-2.269-1.516-5.49.378-7.568-1.326-2.943-2.406-11.712-9.383-15.331-4.724-2.369,3.054-.664,16.63-3,19.588-4.906,6.193-8.291-1.642-13.456,2.192-.889.66-.41,1.685-.95,4.9-.449,2.637,2.343,4.616,1.4,8.779-1.011,4.451-3.574,10.266-2.915,12.039,4.038,10.844,11.293,18.1,6.434,33.118-1.595,4.923-6.963,16.974-6.877,16.835a5.965,5.965,0,0,0,1.042.067c6.679-.237,13.379-.529,20.031-1.2C573.012-577.351,578.347-578.329,583.243-578.5Z" transform="translate(-547.102 674.785)" fill="none" stroke="#fff" stroke-linecap="round" stroke-linejoin="round" stroke-width="1"/>
      </g>
      <g id="Group_267" data-name="Group 267" transform="translate(614.38 213.028)">
        <path id="Path_349" data-name="Path 349" d="M532.927-474.757c.129-.065-.227-.306-.592-.325-3.423-.165-1.126-7.733.218-10.878,1.979-4.628,5.733-8.546,5.207-13.593-.625-6.019-3.644-30.724-4.038-37.1-.453-7.372-1-14.774-1.679-22.131-.286-3.082-1.344-9.218-.878-14.008.166.078.347.129.511.2-6.314-2.737-10.435-8.644-12.135-18.007.074.4.133.817.217,1.2-14.1,1.479-39.237,2.453-45.967,2.273,0,0,9.132,8.9,7.382,15.707-1.613,6.25-10.791,13.44-14.955,14.763,3.787,10.413-.174,10.4-2.271,14.067a30.244,30.244,0,0,0-2.894,6.838c.12,6.536-.127,15.754,5.165,21.426,3.536,3.787,7.707,3.325,10.319,7a20.682,20.682,0,0,1,4.065,9.968c4.729-1.015,6.836,1.446,8.6,3.593-3.162,3.865-3.807,11.1-2.8,14.008.978,2.806,3.013,1.979,5.566,3.721,2.335,1.591,5.4,3.975,6.926,6.248a57.4,57.4,0,0,1,5.552,10.975,24.359,24.359,0,0,0,3.007,5.449c.127-.076.255-.153.384-.221,2.192-1.1,4.416-2.327,6.577-3.487,2.108,1.714,5.113,5.776,7.835,6.269,4.506.827,1.538-7.412.239-9.269,4.012-.506,7.986-1.63,10.409-4.726C535.01-467.479,537.259-473.157,532.927-474.757Z" transform="translate(-461.053 590.599)" fill="none" stroke="#fff" stroke-linecap="round" stroke-linejoin="round" stroke-width="1"/>
      </g>
      <g id="Group_256" data-name="Group 256" transform="translate(584.69 110.684)">
        <path id="Path_322" data-name="Path 322" d="M472.238-688.959c.218-.067.431-.129.649-.2C472.665-689.088,472.452-689.026,472.238-688.959Z" transform="translate(-431.362 692.943)" fill="none" stroke="#fff" stroke-linecap="round" stroke-linejoin="round" stroke-width="1"/>
        <path id="Path_323" data-name="Path 323" d="M473.488-689.363c.171-.061.343-.121.515-.184C473.831-689.484,473.658-689.424,473.488-689.363Z" transform="translate(-431.362 692.943)" fill="none" stroke="#fff" stroke-linecap="round" stroke-linejoin="round" stroke-width="1"/>
        <path id="Path_324" data-name="Path 324" d="M524.118-642.62c-3-1.748-5.478.505-6.626-1.969a14.142,14.142,0,0,1-.421-10.654c.9-2.228,3.27-5.031,4.761-7.543-.124.2-.245.4-.376.607-.1-.617-.206-1.234-.325-1.855-1.293-6.8,1.808-12.406-13.71-13.542-7.367-.539-22.268-6.009-27.633-7.274a37.722,37.722,0,0,1-8.846-3.744c.143-.035.282-.074.425-.116a18.531,18.531,0,0,1-5.58.725c-5.731-.253-3.66-3.909-9.083-4.826-5.4-.913-12.039,3.27-17.366,1.454,0,6.779.513,12.788.272,17.5-12.811,5.744-7.31,14.9-5.619,15.585-.159,3-.713,10.774.19,13.436,1.85,5.439,5.727,7.112,10.219,10.789,3.317,2.713,6.9,7.275,10.6,11.355,5.488,6.054,11.591,16.257,7.38,23.087,3.985,3.964,7.623,8.9,11.355,12.49,6.73.18,31.869-.793,45.967-2.273a59.068,59.068,0,0,1-1.115-12.108c0-6.422-.6-21.559,1.324-27.823.731-2.388,2.618-3.043,3.781-4.541C526.428-637.37,528.268-640.2,524.118-642.62Z" transform="translate(-431.362 692.943)" fill="none" stroke="#fff" stroke-linecap="round" stroke-linejoin="round" stroke-width="1"/>
        <path id="Path_325" data-name="Path 325" d="M474.629-689.778c.167-.061.333-.125.5-.19C474.962-689.9,474.8-689.839,474.629-689.778Z" transform="translate(-431.362 692.943)" fill="none" stroke="#fff" stroke-linecap="round" stroke-linejoin="round" stroke-width="1"/>
      </g>
    </g>
  </g>
</svg>
